<svg xmlns="http://www.w3.org/2000/svg" xmlns:xlink="http://www.w3.org/1999/xlink" width="1200" height="1600" viewBox="0 0 1200 1600" id="character"><defs><path id="a" d="M135.946,37.09 C157.804,36.66 165.055,22.58 165.947,15.6 L179.457,15.6 C180.528,17.21 181.75,20.97 184.161,32.25 C187.376,47.29 192.734,49.98 195.948,63.94 C198.174,73.61 198.626,88.11 193.269,96.17 C184.949,108.68 174.519,107.45 156.839,107.45 C146.66,107.45 129.516,104.76 113.98,109.06 C92.288,115.06 32.5477,118.19 17.5456,113.35 C-8.0183,105.12 -1.1568,79.5 9.9897,70 C28.7927,53.97 72.672,58.02 81.839,45.55 C89.338,35.34 94.916,11.04 100.292,5.05 C109.935,-5.69 108.208,2.51 106.479,12.92 C104.337,25.81 108.623,37.62 135.946,37.09 Z"></path><path id="c" d="M62.054,37.09 C40.196,36.66 32.946,22.58 32.053,15.6 L18.543,15.6 C17.472,17.21 16.25,20.97 13.839,32.25 C10.624,47.29 5.266,49.98 2.052,63.94 C-0.173,73.61 -0.626,88.11 4.731,96.17 C13.051,108.68 23.482,107.45 41.161,107.45 C51.341,107.45 68.484,104.76 84.02,109.06 C105.712,115.06 165.452,118.19 180.454,113.35 C206.018,105.12 199.157,79.5 188.01,70 C169.207,53.97 125.328,58.02 116.161,45.55 C108.662,35.34 103.084,11.04 97.708,5.05 C88.065,-5.69 89.792,2.51 91.521,12.92 C93.663,25.81 89.377,37.62 62.054,37.09 Z"></path></defs><g fill="none" fill-rule="evenodd"><g transform="translate(335 109)"><g transform="translate(66 875)"><path fill="#565952" fill-rule="nonzero" d="M180.145,115.92 C243.928,115.92 295.635,91.427 295.635,61.214 C295.635,31.001 243.928,6.508 180.145,6.508 C116.361,6.508 64.654,31.001 64.654,61.214 C64.654,91.427 116.361,115.92 180.145,115.92 Z"></path><path fill="#EBBAAA" fill-rule="nonzero" d="M232.106352 271.894093L247.106352 440.394093C248.428573 455.247045 261.541142 466.215869 276.394093 464.893648 291.247045 463.571427 302.215869 450.458858 300.893648 435.605907L285.893648 267.105907C284.571427 252.252955 271.458858 241.284131 256.605907 242.606352 241.752955 243.928573 230.784131 257.041142 232.106352 271.894093zM111 269L111 424C111 438.911688 123.088312 451 138 451 152.911688 451 165 438.911688 165 424L165 269C165 254.088312 152.911688 242 138 242 123.088312 242 111 254.088312 111 269z"></path><polygon fill="#565952" fill-rule="nonzero" points="56 0 191 0 181 353.5 178 388 101.5 384 96 353.5"></polygon><path fill="#FFF" fill-rule="nonzero" d="M117.531164,43.1064891 C116.460535,49.8234795 113.273992,58.4680872 108.542689,66.0374064 C102.437908,75.8040705 94.2721865,83.2021747 84.0919795,87.17073 C82.8055592,87.6722159 82.1692441,89.1216002 82.67073,90.4080205 C83.1722159,91.6944408 84.6216002,92.3307559 85.9080205,91.82927 C97.172078,87.4381967 106.141895,79.3115859 112.782561,68.6875936 C117.873719,60.5425628 121.294117,51.2635425 122.468836,43.8935109 C122.686166,42.5300107 121.757011,41.2484945 120.393511,41.0311644 C119.030011,40.8138343 117.748494,41.7429888 117.531164,43.1064891 Z" opacity=".2"></path><polygon fill="#565952" fill-rule="nonzero" points="189.714 6.021 325.172 6.021 310.5 350 309 381 230.5 387.5 226 359"></polygon><path fill="#FFF" fill-rule="nonzero" d="M265.000799,35.936794 C264.785676,44.4428961 267.36469,55.2357839 272.690763,64.8035858 C279.601534,77.2181544 290.527352,86.8691047 305.648002,92.3503402 C306.946059,92.8208858 308.379794,92.1500553 308.85034,90.8519983 C309.320886,89.5539413 308.650055,88.1202055 307.351998,87.6496598 C293.39572,82.5905091 283.399249,73.7604656 277.059487,62.3716642 C272.17408,53.595477 269.806392,43.6869669 269.999201,36.063206 C270.034109,34.6829355 268.943477,33.5357069 267.563206,33.5007991 C266.182936,33.4658914 265.035707,34.5565234 265.000799,35.936794 Z" opacity=".2"></path><path fill="#777A74" fill-rule="nonzero" d="M305.500574 89.9464409L305.329185 97.9446048C305.299605 99.3249997 306.394657 100.46801 307.775052 100.49759 309.155447 100.52717 310.298457 99.432118 310.328037 98.051723L310.499426 90.0535591C310.529006 88.6731641 309.433954 87.5301537 308.053559 87.5005738 306.673164 87.4709939 305.530154 88.5660459 305.500574 89.9464409zM305.157795 105.942769L304.986406 113.940933C304.956826 115.321328 306.051878 116.464338 307.432273 116.493918 308.812668 116.523498 309.955679 115.428446 309.985259 114.048051L310.156648 106.049887C310.186228 104.669492 309.091176 103.526481 307.710781 103.496902 306.330386 103.467322 305.187375 104.562374 305.157795 105.942769zM304.815017 121.939096L304.643628 129.93726C304.614048 131.317655 305.7091 132.460666 307.089495 132.490246 308.46989 132.519826 309.6129 131.424774 309.64248 130.044379L309.813869 122.046215C309.843449 120.66582 308.748397 119.522809 307.368002 119.493229 305.987607 119.463649 304.844597 120.558701 304.815017 121.939096zM304.472238 137.935424L304.300849 145.933588C304.271269 147.313983 305.366321 148.456994 306.746716 148.486574 308.127111 148.516153 309.270122 147.421101 309.299702 146.040706L309.471091 138.042543C309.500671 136.662148 308.405619 135.519137 307.025224 135.489557 305.644829 135.459977 304.501818 136.555029 304.472238 137.935424zM304.12946 153.931752L303.958071 161.929916C303.928491 163.310311 305.023543 164.453321 306.403938 164.482901 307.784333 164.512481 308.927343 163.417429 308.956923 162.037034L309.128312 154.03887C309.157892 152.658475 308.06284 151.515465 306.682445 151.485885 305.30205 151.456305 304.15904 152.551357 304.12946 153.931752zM303.786682 169.92808L303.615292 177.926244C303.585712 179.306639 304.680764 180.449649 306.061159 180.479229 307.441554 180.508809 308.584565 179.413757 308.614145 178.033362L308.785534 170.035198C308.815114 168.654803 307.720062 167.511793 306.339667 167.482213 304.959272 167.452633 303.816261 168.547685 303.786682 169.92808zM303.443903 185.924408L303.272514 193.922572C303.242934 195.302967 304.337986 196.445977 305.718381 196.475557 307.098776 196.505137 308.241786 195.410085 308.271366 194.02969L308.442756 186.031526C308.472335 184.651131 307.377283 183.50812 305.996888 183.478541 304.616493 183.448961 303.473483 184.544013 303.443903 185.924408zM303.101125 201.920735L302.929735 209.918899C302.900155 211.299294 303.995207 212.442305 305.375602 212.471885 306.755997 212.501465 307.899008 211.406413 307.928588 210.026018L308.099977 202.027854C308.129557 200.647459 307.034505 199.504448 305.65411 199.474868 304.273715 199.445288 303.130705 200.54034 303.101125 201.920735zM302.758346 217.917063L302.586957 225.915227C302.557377 227.295622 303.652429 228.438633 305.032824 228.468212 306.413219 228.497792 307.556229 227.40274 307.585809 226.022345L307.757199 218.024181C307.786778 216.643787 306.691726 215.500776 305.311332 215.471196 303.930937 215.441616 302.787926 216.536668 302.758346 217.917063zM302.415568 233.913391L302.244178 241.911555C302.214599 243.29195 303.309651 244.43496 304.690046 244.46454 306.070441 244.49412 307.213451 243.399068 307.243031 242.018673L307.41442 234.020509C307.444 232.640114 306.348948 231.497104 304.968553 231.467524 303.588158 231.437944 302.445148 232.532996 302.415568 233.913391zM302.072789 249.909719L301.9014 257.907883C301.87182 259.288278 302.966872 260.431288 304.347267 260.460868 305.727662 260.490448 306.870673 259.395396 306.900252 258.015001L307.071642 250.016837C307.101222 248.636442 306.00617 247.493432 304.625775 247.463852 303.24538 247.434272 302.102369 248.529324 302.072789 249.909719zM301.730011 265.906047L301.558622 273.904211C301.529042 275.284605 302.624094 276.427616 304.004489 276.457196 305.384884 276.486776 306.527894 275.391724 306.557474 274.011329L306.728863 266.013165C306.758443 264.63277 305.663391 263.489759 304.282996 263.46018 302.902601 263.4306 301.759591 264.525652 301.730011 265.906047zM301.387232 281.902374L301.215843 289.900538C301.186263 291.280933 302.281315 292.423944 303.66171 292.453524 305.042105 292.483104 306.185116 291.388052 306.214696 290.007657L306.386085 282.009493C306.415665 280.629098 305.320613 279.486087 303.940218 279.456507 302.559823 279.426927 301.416812 280.521979 301.387232 281.902374zM301.044454 297.898702L300.873065 305.896866C300.843485 307.277261 301.938537 308.420272 303.318932 308.449851 304.699327 308.479431 305.842337 307.384379 305.871917 306.003984L306.043306 298.00582C306.072886 296.625425 304.977834 295.482415 303.597439 295.452835 302.217044 295.423255 301.074034 296.518307 301.044454 297.898702zM300.701675 313.89503L300.530286 321.893194C300.500706 323.273589 301.595758 324.416599 302.976153 324.446179 304.356548 324.475759 305.499559 323.380707 305.529139 322.000312L305.700528 314.002148C305.730108 312.621753 304.635056 311.478743 303.254661 311.449163 301.874266 311.419583 300.731255 312.514635 300.701675 313.89503zM300.358897 329.891358L300.187508 337.889522C300.157928 339.269917 301.25298 340.412927 302.633375 340.442507 304.01377 340.472087 305.15678 339.377035 305.18636 337.99664L305.357749 329.998476C305.387329 328.618081 304.292277 327.475071 302.911882 327.445491 301.531487 327.415911 300.388477 328.510963 300.358897 329.891358zM300.016119 345.887686L299.844729 353.885849C299.815149 355.266244 300.910201 356.409255 302.290596 356.438835 303.670991 356.468415 304.814002 355.373363 304.843582 353.992968L305.014971 345.994804C305.044551 344.614409 303.949499 343.471398 302.569104 343.441819 301.188709 343.412239 300.045698 344.507291 300.016119 345.887686zM299.67334 361.884013L299.501951 369.882177C299.472371 371.262572 300.567423 372.405583 301.947818 372.435163 303.328213 372.464743 304.471223 371.369691 304.500803 369.989296L304.672193 361.991132C304.701772 360.610737 303.60672 359.467726 302.226325 359.438146 300.84593 359.408566 299.70292 360.503618 299.67334 361.884013zM81.509349 89.7160034L82.2005597 97.6860867C82.3198551 99.0616352 83.5316655 100.08003 84.9072141 99.9607343 86.2827627 99.841439 87.3011572 98.6296285 87.1818618 97.2540799L86.490651 89.2839966C86.3713557 87.9084481 85.1595452 86.8900536 83.7839966 87.009349 82.4084481 87.1286443 81.3900536 88.3404548 81.509349 89.7160034zM82.8917705 105.65617L83.5829813 113.626253C83.7022766 115.001802 84.9140871 116.020196 86.2896357 115.900901 87.6651842 115.781606 88.6835787 114.569795 88.5642833 113.194247L87.8730726 105.224163C87.7537772 103.848615 86.5419667 102.83022 85.1664182 102.949516 83.7908696 103.068811 82.7724751 104.280621 82.8917705 105.65617zM84.274192 121.596337L84.9654028 129.56642C85.0846982 130.941968 86.2965086 131.960363 87.6720572 131.841067 89.0476058 131.721772 90.0660002 130.509962 89.9467048 129.134413L89.2554941 121.16433C89.1361987 119.788781 87.9243883 118.770387 86.5488397 118.889682 85.1732911 119.008978 84.1548967 120.220788 84.274192 121.596337zM85.6566136 137.536503L86.3478243 145.506586C86.4671197 146.882135 87.6789301 147.900529 89.0544787 147.781234 90.4300273 147.661939 91.4484217 146.450128 91.3291264 145.07458L90.6379156 137.104496C90.5186202 135.728948 89.3068098 134.710553 87.9312612 134.829849 86.5557126 134.949144 85.5373182 136.160955 85.6566136 137.536503zM87.0390351 153.47667L87.7302458 161.446753C87.8495412 162.822302 89.0613517 163.840696 90.4369002 163.721401 91.8124488 163.602105 92.8308433 162.390295 92.7115479 161.014746L92.0203371 153.044663C91.9010418 151.669114 90.6892313 150.65072 89.3136827 150.770015 87.9381342 150.889311 86.9197397 152.101121 87.0390351 153.47667zM88.4214566 169.416836L89.1126674 177.38692C89.2319627 178.762468 90.4437732 179.780863 91.8193218 179.661567 93.1948703 179.542272 94.2132648 178.330461 94.0939694 176.954913L93.4027587 168.98483C93.2834633 167.609281 92.0716529 166.590887 90.6961043 166.710182 89.3205557 166.829477 88.3021612 168.041288 88.4214566 169.416836zM89.8038781 185.357003L90.4950889 193.327086C90.6143843 194.702635 91.8261947 195.721029 93.2017433 195.601734 94.5772919 195.482438 95.5956863 194.270628 95.476391 192.895079L94.7851802 184.924996C94.6658848 183.549448 93.4540744 182.531053 92.0785258 182.650348 90.7029772 182.769644 89.6845828 183.981454 89.8038781 185.357003zM91.1862997 201.297169L91.8775104 209.267253C91.9968058 210.642801 93.2086162 211.661196 94.5841648 211.5419 95.9597134 211.422605 96.9781078 210.210795 96.8588125 208.835246L96.1676017 200.865163C96.0483064 199.489614 94.8364959 198.47122 93.4609473 198.590515 92.0853987 198.70981 91.0670043 199.921621 91.1862997 201.297169zM92.5687212 217.237336L93.2599319 225.207419C93.3792273 226.582968 94.5910378 227.601362 95.9665863 227.482067 97.3421349 227.362772 98.3605294 226.150961 98.241234 224.775413L97.5500232 216.805329C97.4307279 215.429781 96.2189174 214.411386 94.8433689 214.530682 93.4678203 214.649977 92.4494258 215.861787 92.5687212 217.237336zM93.9511427 233.177503L94.6423535 241.147586C94.7616488 242.523134 95.9734593 243.541529 97.3490079 243.422234 98.7245564 243.302938 99.7429509 242.091128 99.6236555 240.715579L98.9324448 232.745496C98.8131494 231.369947 97.601339 230.351553 96.2257904 230.470848 94.8502418 230.590144 93.8318473 231.801954 93.9511427 233.177503zM95.3335642 249.117669L96.024775 257.087752C96.1440704 258.463301 97.3558808 259.481696 98.7314294 259.3624 100.106978 259.243105 101.125372 258.031294 101.006077 256.655746L100.314866 248.685662C100.195571 247.310114 98.9837605 246.291719 97.6082119 246.411015 96.2326633 246.53031 95.2142689 247.742121 95.3335642 249.117669zM96.7159858 265.057836L97.4071965 273.027919C97.5264919 274.403468 98.7383023 275.421862 100.113851 275.302567 101.4894 275.183271 102.507794 273.971461 102.388499 272.595912L101.697288 264.625829C101.577992 263.25028 100.366182 262.231886 98.9906334 262.351181 97.6150849 262.470477 96.5966904 263.682287 96.7159858 265.057836zM98.0984073 280.998002L98.7896181 288.968086C98.9089134 290.343634 100.120724 291.362029 101.496272 291.242733 102.871821 291.123438 103.890215 289.911628 103.77092 288.536079L103.079709 280.565996C102.960414 279.190447 101.748604 278.172053 100.373055 278.291348 98.9975064 278.410643 97.9791119 279.622454 98.0984073 280.998002zM99.4808288 296.938169L100.17204 304.908252C100.291335 306.283801 101.503145 307.302195 102.878694 307.1829 104.254243 307.063605 105.272637 305.851794 105.153342 304.476246L104.462131 296.506162C104.342836 295.130614 103.131025 294.112219 101.755476 294.231515 100.379928 294.35081 99.3615335 295.56262 99.4808288 296.938169zM100.86325 312.878336L101.554461 320.848419C101.673756 322.223967 102.885567 323.242362 104.261116 323.123066 105.636664 323.003771 106.655059 321.791961 106.535763 320.416412L105.844552 312.446329C105.725257 311.07078 104.513447 310.052386 103.137898 310.171681 101.762349 310.290977 100.743955 311.502787 100.86325 312.878336zM102.245672 328.818502L102.936883 336.788585C103.056178 338.164134 104.267988 339.182528 105.643537 339.063233 107.019086 338.943938 108.03748 337.732127 107.918185 336.356579L107.226974 328.386495C107.107679 327.010947 105.895868 325.992552 104.52032 326.111848 103.144771 326.231143 102.126377 327.442954 102.245672 328.818502zM103.628093 344.758669L104.319304 352.728752C104.4386 354.104301 105.65041 355.122695 107.025959 355.0034 108.401507 354.884104 109.419902 353.672294 109.300606 352.296745L108.609395 344.326662C108.4901 342.951113 107.27829 341.932719 105.902741 342.052014 104.527192 342.17131 103.508798 343.38312 103.628093 344.758669zM105.010515 360.698835L105.701726 368.668919C105.821021 370.044467 107.032832 371.062862 108.40838 370.943566 109.783929 370.824271 110.802323 369.61246 110.683028 368.236912L109.991817 360.266829C109.872522 358.89128 108.660711 357.872886 107.285163 357.992181 105.909614 358.111476 104.89122 359.323287 105.010515 360.698835z"></path><path fill="#DCE1E9" fill-rule="nonzero" d="M170.083,431.5 C170.083,431.5 169.584,398.5 167.091,401 C164.597,403.5 153.134,410 137.665,410 C122.204,410 112.728,404.5 109.237,401 C105.746,397.5 101.756,433 101.756,433 L170.083,431.5 Z"></path><path fill="#DEDEDE" fill-rule="nonzero" d="M1.511,488 C-0.4038,483.68 -0.2264,479.29 0.8458,477.67 C1.918,476.06 132.106,465.86 132.106,465.86 C153.714,464.25 197.833,454.2 200.793,465.86 C210.884,505.6 184.068,505.6 166.924,505.6 C143.352,505.6 140.554,499.35 125.142,501.31 C117.106,502.33 105.319,507.75 51.209,507.75 C7.8114,507.75 5.7968,497.67 1.511,488 Z"></path><path fill="#252424" fill-rule="nonzero" d="M169.522,404.1 L169.585,404 C169.585,404 172.577,400 177.066,403 C181.554,406 184.452,412.87 186.864,423.77 C190.08,438.31 192.795,436.23 196.011,449.73 C198.237,459.08 198.69,473.1 193.331,480.89 C185.007,492.98 174.571,491.79 156.883,491.79 C146.699,491.79 129.548,489.19 114.004,493.35 C92.302,499.15 32.5325,502.17 17.5233,497.5 C-8.0528,489.54 -0.164,466.35 10.5545,457.52 C29.3667,442.03 72.637,446.56 81.808,434.5 C89.311,424.64 92.845,407.85 95.5,400.41 C98.5,392 107.577,390.06 106.499,400.41 C105.5,410 108.644,424.29 135.98,423.77 C157.795,423.36 160.997,418.1 169.522,404.1 Z"></path><g transform="translate(0 388)"><mask id="b" fill="#fff"><use xlink:href="#a"></use></mask><path fill="#DEDEDE" fill-rule="nonzero" d="M23.8812,88.6 C14.0235,88.6 -2.4998,78.54 -2.4998,75.5 C-3.2141,84.99 -3.4286,104.41 3.0003,110 C11.0364,116.98 85.491,118.14 93.527,114.92 C101.563,111.7 103,107 89,109.5 C80.944,110.94 56.561,102.03 47.989,95.58 C39.418,89.14 36.203,88.6 23.8812,88.6 Z" mask="url(#b)"></path></g><path fill="#2A2A2A" fill-rule="nonzero" d="M56.2245278,439.328133 C54.3918827,438.649183 52.3816089,439.744674 51.9587539,441.65275 L48.637949,456.637437 L32.6470574,447.102147 C31.1184142,446.190624 29.1402691,446.690899 28.2287466,448.219543 C27.3172242,449.748186 27.8174994,451.726331 29.3461426,452.637853 L49.1685426,464.457853 C51.0552616,465.582895 53.4899628,464.531902 53.9652461,462.38725 L57.4515105,446.655949 L78.6294722,454.501867 C80.830962,455.317465 83.137751,453.580749 82.9625991,451.239579 L81.7264835,434.717012 L99.6675571,441.181764 C101.341954,441.785103 103.188424,440.91684 103.791764,439.242443 C104.395103,437.568046 103.52684,435.721576 101.852443,435.118236 L79.2344429,426.968236 C77.0374715,426.176596 74.7541791,427.911683 74.9284009,430.240421 L76.1608557,446.714056 L56.2245278,439.328133 Z"></path><path fill="#DCE1E9" fill-rule="nonzero" d="M238.917,431.5 C238.917,431.5 239.416,398.5 241.909,401 C244.403,403.5 255.866,410 271.335,410 C286.796,410 296.272,404.5 299.763,401 C303.254,397.5 307.244,433 307.244,433 L238.917,431.5 Z"></path><path fill="#DEDEDE" fill-rule="nonzero" d="M407.489,488 C409.404,483.68 409.226,479.29 408.154,477.67 C407.082,476.06 276.894,465.86 276.894,465.86 C255.286,464.25 211.167,454.2 208.207,465.86 C198.116,505.6 224.932,505.6 242.076,505.6 C265.648,505.6 268.446,499.35 283.858,501.31 C291.894,502.33 303.681,507.75 357.791,507.75 C401.189,507.75 403.203,497.67 407.489,488 Z"></path><path fill="#252424" fill-rule="nonzero" d="M239.478,404.1 L239.415,404 C239.415,404 236.423,400 231.934,403 C227.446,406 224.548,412.87 222.136,423.77 C218.92,438.31 216.205,436.23 212.989,449.73 C210.763,459.08 210.31,473.1 215.669,480.89 C223.993,492.98 234.429,491.79 252.117,491.79 C262.301,491.79 279.453,489.19 294.997,493.35 C316.698,499.15 376.467,502.17 391.477,497.5 C417.053,489.54 409.164,466.35 398.445,457.52 C379.633,442.03 336.363,446.56 327.192,434.5 C319.689,424.64 316.156,407.85 313.5,400.41 C310.5,392 301.423,390.06 302.501,400.41 C303.5,410 300.356,424.29 273.02,423.77 C251.205,423.36 248.003,418.1 239.478,404.1 Z"></path><g transform="translate(211 388)"><mask id="d" fill="#fff"><use xlink:href="#c"></use></mask><path fill="#DEDEDE" fill-rule="nonzero" d="M174.119,88.6 C183.976,88.6 200.5,78.54 200.5,75.5 C201.214,84.99 201.429,104.41 195,110 C186.964,116.98 112.509,118.14 104.473,114.92 C96.437,111.7 95,107 109,109.5 C117.056,110.94 141.439,102.03 150.011,95.58 C158.582,89.14 161.797,88.6 174.119,88.6 Z" mask="url(#d)"></path></g><path fill="#2A2A2A" fill-rule="nonzero" d="M326.037401,451.239579 C325.862249,453.580749 328.169038,455.317465 330.370528,454.501867 L351.548489,446.655949 L355.034754,462.38725 C355.51004,464.531914 357.944763,465.582903 359.831482,464.457839 L379.653482,452.637839 C381.182117,451.726303 381.682375,449.748153 380.770839,448.219518 C379.859303,446.690883 377.881153,446.190625 376.352518,447.102161 L360.362042,456.637396 L357.041246,441.65275 C356.618391,439.744674 354.608117,438.649183 352.775472,439.328133 L332.839144,446.714056 L334.071599,430.240421 C334.245821,427.911683 331.962529,426.176596 329.765557,426.968236 L307.147557,435.118236 C305.47316,435.721576 304.604897,437.568046 305.208236,439.242443 C305.811576,440.91684 307.658046,441.785103 309.332443,441.181764 L327.273517,434.717012 L326.037401,451.239579 Z"></path></g><g transform="translate(0 477)"><path fill="#EBBAAA" fill-rule="nonzero" d="M91.5239881 371.762733L91.4991117 371.150255C90.9014918 355.670987 92.367496 334.453805 95.6851339 310.710403L95.8471089 309.559571C102.891299 259.86883 116.640731 208.240071 129.657397 182.756197 138.952609 164.55814 131.735428 142.270441 113.537371 132.975229 95.3393146 123.680016 73.051616 130.897197 63.7564033 149.095254 46.3720692 183.130096 30.6735164 242.077754 22.5796411 299.17313L22.1927853 301.944101C18.4582832 329.1146 16.7808343 353.973727 17.5542008 374.005102 18.0248065 386.194509 19.3888265 396.830282 21.9236658 406.039937 25.8478473 420.297392 32.5296511 431.97724 44.7520372 439.968708 61.8551818 451.151404 84.7853864 446.351933 95.9680827 429.248788 105.165984 415.181248 103.551535 397.171551 93.1716369 384.999076L92.8544136 384.63201C92.2448861 381.62607 91.7573504 377.23512 91.5239881 371.762733zM379.495867 159.366734C398.086385 192.322354 413.11536 243.319426 420.937923 297.064409 427.832887 344.436316 427.76199 387.276098 422.391839 402.890846L422.227487 403.355663C415.244364 422.559992 425.151609 443.789116 444.355938 450.772239 463.560266 457.755362 484.789391 447.848117 491.772513 428.643788 502.587915 398.900285 502.764257 345.47819 494.166327 286.406041 485.137124 224.370826 467.64546 165.017236 443.948133 123.008717 433.908144 105.210715 411.340993 98.9216032 393.542991 108.961592 375.74499 119.001582 369.455878 141.568732 379.495867 159.366734z"></path><path fill="#EBBAAA" fill-rule="nonzero" d="M94,74.4997254 C94,50.9997254 145.5,27.0157254 181.5,15.6097254 L228.5,0.0157254159 C235.045,-0.190274584 280.017,1.67972542 286.5,2.57572542 L359.5,27.0157254 C394.091,31.7977254 447.484,46.7537254 444,81.4997254 L406.548,234.298725 L410,430.999725 C410.072,432.813725 327.314,443.092725 325.5,443.000353 L188,434.279725 L113.5,430.929725 C111.758,430.836725 110.856,425.741725 111,423.999725 L121.008,215.879725 L94,74.4997254 Z"></path><path fill="#C5C9CF" fill-rule="nonzero" d="M435.5,50.4997254 C426.3,41.2997254 396,31.9997254 382,28.4997254 C390.833,146.499725 409.3,385.499725 412.5,397.499725 C416.5,412.499725 504,418.499725 512,412.499725 C520,406.499725 529,349.999725 527,318.999725 C525,287.999725 447,61.9997254 435.5,50.4997254 Z"></path><path fill="#DADDE2" fill-rule="nonzero" d="M511.5,413.999725 C515.9,413.199725 526,384.666725 529.5,373.499725 L406.5,353.999725 C405,364.166725 402.2,386.199725 403,392.999725 C404,401.499725 427,408.999725 452,412.999725 C477,416.999725 506,414.999725 511.5,413.999725 Z"></path><path fill="#BFC3C8" fill-rule="nonzero" d="M90.9183,52.9827254 C99.5304,43.7897254 127.894,34.4967254 140.999994,30.9997254 C132.731,148.908725 115.444,387.722725 112.449,399.713725 C108.704,414.702725 26.7949,420.697725 19.306,414.702725 C11.8172,408.706725 3.39223,352.250725 5.26443,321.274725 C7.13666,290.298725 80.153,64.4737254 90.9183,52.9827254 Z"></path><path fill="#DADDE2" fill-rule="nonzero" d="M17.6246,415.615725 C13.3164,414.820725 3.42702,386.469725 4.26325641e-14,375.374725 L120.435,355.999725 C121.904,366.101725 124.645,387.993725 123.862,394.749725 C122.883,403.195725 100.362,410.647725 75.8838,414.621725 C51.4051,418.596725 23.0099,416.609725 17.6246,415.615725 Z"></path><path fill="#C5C9CF" fill-rule="nonzero" d="M246,90.9997254 C241,76.4997254 243.5,56.4997254 243.5,56.4997254 L221,63.9997254 L194,11.4997254 C162.833,16.9997254 161.5,18.9997254 139,28.9997254 C112.159,40.9287254 117.5,80.9997254 113.5,135.499725 L108,433.999725 L182,445.499725 L231.5,445.999725 L253.5,107.499725 C253.5,107.499725 251,105.499725 246,90.9997254 Z"></path><path fill="#BFC3C8" fill-rule="nonzero" d="M265.002,90.4997254 C252.002,79.9997254 254.169,71.6667254 256.502,63.4997254 L261.002,60.4997254 L294.002,56.4997254 L325.002,14.4997254 C325.002,14.4997254 369.502,20.4997254 384.502,28.4997254 C399.502,36.4997254 408.502,123.999725 408.502,123.999725 L415.502,435.499725 L377.502,445.999725 L231.002,445.999725 C229.669,341.332725 236.037,115.863725 249.002,108.999725 C266.002,99.9997254 268.002,92.9227254 265.002,90.4997254 Z"></path><path fill="#DADDE2" fill-rule="nonzero" d="M298 28.4997254C301.439 17.1237254 298 8.99972542 297 3.99972542L325 14.4997254C325 14.4997254 334.5 26.4997254 328.5 53.9997254 321.927 84.1267254 292.857 95.9997254 286 103.999725 283 107.499725 284 64.9997254 261 60.4997254 271.5 57.9997254 291.5 49.9997254 298 28.4997254zM218.052 34.4997254C211 24.4997254 214.658 10.4737254 218.052 2.99972542L193.5 11.4997254C193.5 11.4997254 179.382 35.8077254 187.014 59.3007254 196.5 88.4997254 230.294 99.0507254 230 95.4997254 227 59.3007254 238.989 60.6497254 244 55.9997254 235.5 53.9997254 227.424 47.7887254 218.052 34.4997254z"></path><circle cx="295" cy="85" r="5" fill="#DAE2F3" fill-rule="nonzero"></circle><circle cx="218" cy="80" r="5" fill="#E5EBF9" fill-rule="nonzero"></circle><circle cx="258.5" cy="127.5" r="7.5" fill="#DADDE2" fill-rule="nonzero"></circle><circle cx="503.5" cy="397.5" r="7.5" fill="#DAE2F3" fill-rule="nonzero"></circle><circle cx="29.5" cy="397.5" r="7.5" fill="#DAE2F3" fill-rule="nonzero"></circle><ellipse cx="252.5" cy="199" fill="#DADDE2" fill-rule="nonzero" rx="7.5" ry="8"></ellipse><circle cx="248.5" cy="270.5" r="7.5" fill="#DADDE2" fill-rule="nonzero"></circle><circle cx="248.5" cy="341.5" r="7.5" fill="#DADDE2" fill-rule="nonzero"></circle><circle cx="248.5" cy="404.5" r="7.5" fill="#DADDE2" fill-rule="nonzero"></circle><path fill="#DADDE2" fill-rule="nonzero" d="M303,133.999725 C303,131.238725 305.239,128.999725 308,128.999725 L383,128.999725 C385.761,128.999725 388,131.238725 388,133.999725 L388,212.999725 C388,215.760725 385.761,217.999725 383,217.999725 L308,217.999725 C305.239,217.999725 303,215.760725 303,212.999725 L303,133.999725 Z"></path><g transform="translate(318 116)"><path fill="#000" fill-rule="nonzero" d="M1.28554343,106.754466 L0.375850875,151.587458 C0.309081458,154.88918 2.02104425,157.962369 4.88804903,159.60038 L6.49954102,160.511647 C11.8545063,163.505912 17.0180595,166.047586 21.2502356,167.546674 C25.6241373,169.095148 31.0829355,170.200968 36.8583769,170.959194 C40.7732437,171.472659 44.4937438,169.321555 45.9084536,165.658139 C49.8591149,155.421081 52.5215637,143.056894 52.3676249,129.480453 C52.2211341,116.45452 50.217782,105.433491 47.3182955,96.7456524 C46.0718,93.0121488 42.4241227,90.7270931 38.4741128,91.0679866 C33.7559783,91.4735015 28.7738074,92.0493254 23.9565288,92.8160729 C18.245735,93.724433 12.0531297,96.0551481 6.10587307,99.0209843 C3.27578398,100.430822 1.48255003,103.255338 1.29923645,106.404334 L1.28554343,106.754466 Z M7.43613855,106.87714 C7.4571681,105.823061 8.00602634,104.92325 8.8597513,104.497958 C14.2944193,101.787745 19.9646469,99.6536373 24.9273433,98.8642698 C29.5824676,98.1233317 34.4223838,97.5639492 39.0042852,97.1701431 C40.1685353,97.0696662 41.1486655,97.6836603 41.4804299,98.6773611 C44.1869642,106.78705 46.0771394,117.185459 46.2161844,129.549312 C46.3604423,142.271955 43.8573883,153.895927 40.1661756,163.460695 C39.7815849,164.456599 38.7832748,165.033798 37.6622184,164.886763 C32.2797872,164.180133 27.1912829,163.149326 23.311764,161.775875 C19.095187,160.282313 13.5769636,157.50474 7.95056911,154.288345 C7.05020111,153.773936 6.50452001,152.79437 6.52642935,151.710962 L7.43613855,106.87714 Z"></path><polygon fill="#000" fill-rule="nonzero" points="28.279 166.034 34.374 166.034 34.374 82.267 22.826 59.034 17.374 61.774 28.279 83.714"></polygon><path fill="#000" fill-rule="nonzero" d="M36.8031117,78.5747353 C38.4145828,82.134111 38.687282,87.7876352 36.373967,92.1441384 L41.9550406,95.034467 C45.2622788,88.8061783 44.895463,81.2014544 42.5561622,76.034467 L36.8031117,78.5747353 Z"></path><path fill="#000" fill-rule="nonzero" d="M1.39614952,61.8383735 L4.58595873,15.7734406 C4.79665496,12.7210829 6.4937473,9.98701095 9.15303449,8.5466367 C14.5971243,5.59308239 20.0686064,3.24923808 24.8261801,2.28679028 C28.7614711,1.49127856 34.1154228,0.8060294 40.0651773,0.232301932 L41.7806086,0.0714154901 C45.9357057,-0.306129501 49.7482834,2.24100278 50.8483388,6.27652799 C53.7640302,16.9774827 55.2204584,29.6230078 53.8604018,43.2003707 C52.5366359,56.4113837 49.5610362,67.4190241 45.9163685,75.9668047 C44.3635414,79.61273 40.5359681,81.5956184 36.6456086,80.894874 C32.0168806,80.0629236 27.1781933,79.0434435 22.5108565,77.8444478 C16.9373158,76.4127237 11.0212118,73.4885611 5.4089037,69.9420348 C2.67595117,68.216069 1.17061028,65.1001185 1.39614952,61.8383735 Z M7.47573907,62.2644995 L7.46824889,62.4863333 C7.46994724,63.440769 7.91304247,64.2823478 8.64883861,64.7470318 C13.7720089,67.9844623 19.1846978,70.6598011 24.0180471,71.9013857 C28.5254659,73.0593 33.2240098,74.0492529 37.71813,74.8570095 C38.8645712,75.0635102 39.8986352,74.5278096 40.3154641,73.5491262 C43.7252832,65.5521318 46.5381558,55.1464678 47.7968334,42.5850281 C49.0740971,29.8341812 47.7021716,17.9223552 44.9710991,7.8989752 C44.665942,6.77951406 43.5964006,6.06496775 42.3296821,6.18006552 L39.7154036,6.42927061 C34.8519191,6.9137808 30.445127,7.47548475 27.0726003,8.09829126 L26.0267048,8.30019935 C22.0039787,9.11398894 16.9988984,11.2580385 12.0429679,13.9467534 C11.2544607,14.3738401 10.7336573,15.2128716 10.6655736,16.1992006 L7.47573907,62.2644995 Z"></path><path stroke="#000" stroke-width="4.612" d="M38.873967,4.03446699 L38.873967,13.034467"></path></g></g><g fill-rule="nonzero" transform="translate(62 .795)"><rect width="78.335" height="118.533" x="156.446" y="420.205" fill="#EBBAAA" rx="37.911"></rect><path fill="#EBBAAA" d="M338.2668 353.73808C370.9988 353.73808 397.5328 327.20408 397.5328 294.47208 397.5328 261.74008 370.9988 235.20508 338.2668 235.20508 305.5348 235.20508 278.9998 261.74008 278.9998 294.47208 278.9998 327.20408 305.5348 353.73808 338.2668 353.73808zM59.2668 356.73808C26.5345 356.73808-1.42108547e-14 330.20408-1.42108547e-14 297.47208-1.42108547e-14 264.74008 26.5345 238.20508 59.2668 238.20508 91.9988 238.20508 118.5328 264.74008 118.5328 297.47208 118.5328 330.20408 91.9988 356.73808 59.2668 356.73808z"></path><path fill="#F4D4C9" d="M40.9998,183.51608 C40.9998,99.3970799 109.1918,31.2050799 193.3108,31.2050799 C278.3528,31.2050799 346.9208,100.84308 345.6048,185.87508 L343.2678,336.72308 C342.0098,417.98708 275.7738,483.20508 194.4998,483.20508 C115.6318,483.20508 50.4598,421.67508 45.9308,342.93708 L40.9998,257.20508 L40.9998,183.51608 Z"></path><path fill="#C99584" d="M165.260519,399.935785 C184.849363,410.818476 207.969447,410.536524 232.91514,400.331468 C236.850936,398.72137 238.736286,394.225535 237.126188,390.28974 C235.51609,386.353944 231.020255,384.468594 227.08446,386.078692 C206.155851,394.640396 187.839974,394.86376 172.739081,386.474375 C169.021815,384.409227 164.334243,385.748534 162.269095,389.465799 C160.203947,393.183065 161.543254,397.870637 165.260519,399.935785 Z"></path><path fill="#272727" d="M33.0096 167.58808C32.7426 161.92008 37.9645 157.20508 44.4997982 157.20508 51.2808 157.20508 56.5878 162.26208 55.9478 168.11608L45.1188 267.28708C44.9378 268.94508 43.3358 270.20508 41.4248 270.20508 39.4278 270.20508 37.7936 268.84308 37.7082 267.12108L33.0096 167.58808zM356.8978 167.70108C357.4508 162.07608 352.5518 157.12108 346.1168 156.78908 339.4408 156.44508 333.9558 161.20608 334.2858 167.06108L339.8628 266.25808C339.9558 267.91608 341.4688 269.25008 343.3508 269.34708 345.3168 269.44908 346.9958 268.17708 347.1678 266.46808L356.8978 167.70108z"></path><path fill="#000" d="M245.4998 270.20508L245.4998 288.20508C245.4998 294.832497 250.872383 300.20508 257.4998 300.20508 264.127217 300.20508 269.4998 294.832497 269.4998 288.20508L269.4998 270.20508C269.4998 263.577663 264.127217 258.20508 257.4998 258.20508 250.872383 258.20508 245.4998 263.577663 245.4998 270.20508zM116.4998 270.20508L116.4998 288.20508C116.4998 294.832497 121.872383 300.20508 128.4998 300.20508 135.127217 300.20508 140.4998 294.832497 140.4998 288.20508L140.4998 270.20508C140.4998 263.577663 135.127217 258.20508 128.4998 258.20508 121.872383 258.20508 116.4998 263.577663 116.4998 270.20508z"></path><path fill="#393939" d="M98.0546514 232.759888L98.0518619 232.764628 98.0981126 232.729873C98.341412 232.544627 98.6710313 232.313342 99.0882209 232.045151 100.434113 231.179943 102.146259 230.276256 104.237869 229.405913 107.844245 227.905259 112.085331 226.711557 116.997854 225.967235 119.707384 225.5567 122.757589 225.275689 126.08074 225.11878 132.678171 224.807269 139.851193 224.994173 146.829312 225.498509L148.002741 225.586643 149.1195 225.676944C149.663207 225.722501 150.184526 225.768569 150.681753 225.814695L152.679406 226.015072C158.16635 226.643789 163.124074 222.705418 163.752792 217.218474 164.370853 211.824529 160.57533 206.942016 155.233842 206.180769L154.956194 206.145088C154.629762 206.107684 154.082124 206.049488 153.335757 205.976853L151.971272 205.849291 150.798475 205.747539C149.995769 205.680244 149.152016 205.614212 148.271028 205.55054 140.563029 204.993453 132.637037 204.786929 125.13745 205.141037 121.165931 205.32856 117.442564 205.671589 114.001746 206.192925 107.465646 207.183243 101.651734 208.819635 96.554298 210.940737 93.354465 212.272224 90.596998 213.727641 88.2731397 215.221537 86.7353552 216.210103 85.6083255 217.068211 84.8793962 217.712282 80.7406857 221.369182 80.3501014 227.688773 84.0070018 231.827484 87.5293036 235.813862 93.5218937 236.322949 97.6565847 233.087239L97.8886105 232.900084 98.0546514 232.759888zM232.873671 224.670119L234.401946 224.512862 235.655042 224.395605 236.7121 224.303944C237.437042 224.2432 238.201785 224.183364 239.002288 224.125509 245.980407 223.621173 253.153429 223.434269 259.75086 223.74578 263.074011 223.902689 266.124216 224.1837 268.833746 224.594235 273.746269 225.338557 277.987355 226.532259 281.593731 228.032913 283.685341 228.903256 285.397487 229.806943 286.743379 230.672151L287.131425 230.927702 287.461368 231.156619 287.783947 231.393645 287.709396 231.326878C291.848107 234.983778 298.167698 234.593194 301.824598 230.454484 305.481499 226.315773 305.090914 219.996182 300.952204 216.339282L300.615395 216.050391C299.892883 215.447375 298.876561 214.695879 297.55846 213.848537 295.234602 212.354641 292.477135 210.899224 289.277302 209.567737 284.179866 207.446635 278.365954 205.810243 271.829854 204.819925 268.389036 204.298589 264.665669 203.95556 260.69415 203.768037 253.194563 203.413929 245.268571 203.620453 237.560572 204.17754L236.267493 204.274681 235.033125 204.374539C234.431096 204.42501 233.852155 204.476192 233.297912 204.52762L231.274741 204.727989 230.875406 204.772088C225.388462 205.400806 221.450091 210.358529 222.078808 215.845474 222.69687 221.239419 227.498435 225.13684 232.873671 224.670119z"></path><path fill="#EBBAAA" d="M201.053293,270.719803 L184.814307,265.690357 L183.849128,268.748359 L183.258526,270.514134 C182.62704,272.359008 181.7706,274.743573 180.218342,279.011181 L176.716696,288.633866 L175.855828,291.037152 L175.183328,292.941657 L174.431752,295.107233 C168.321331,312.894181 166.034364,324.256005 167.984403,333.908032 C169.547207,341.643381 174.113089,347.464707 181.501852,350.245847 C188.275558,352.79548 196.972064,352.617054 207.985439,349.969659 L204.012161,333.440501 C196.005578,335.365123 190.524451,335.477579 187.490493,334.335594 C185.839959,333.71433 185.097504,332.767728 184.647724,330.541473 C183.431359,324.520878 185.685137,314.292012 191.477696,297.850142 L192.366734,295.351429 L198.11927,279.501221 L199.094505,276.743591 C199.88088,274.480206 200.331241,273.051153 201.053293,270.719803 Z"></path><path fill="#1E1E1E" d="M352.9988,98.7050799 C341.3988,73.9050799 311.8328,63.0383799 299.4988,58.7050799 L257.9988,77.2050799 C282.9988,66.0604799 232.3258,78.7596799 262.9988,92.2050799 C299.4998,108.20508 333.4988,149.20508 341.9988,232.70508 C341.9988,232.70508 349.4988,236.95508 352.4988,236.70508 C355.4988,236.45508 362.9988,239.70508 362.9988,239.70508 C363.4988,205.03808 364.5988,123.50508 352.9988,98.7050799 Z"></path><path fill="#272727" d="M26.9995,134.20508 C42.4998,38.7050799 105.4988,29.7050799 136.4988,20.2050799 L60.4988,130.20508 L43.9998,232.70508 C34.4994,219.37208 18.9881,183.56508 26.9995,134.20508 Z"></path><path fill="#272727" d="M212.9998,110.20508 C245.7998,110.20508 287.4998,85.3717799 296.4998,70.7050799 L229.4998,37.2050799 L124.9998,43.2050799 L110.9998,135.20508 C139.9998,102.70508 180.1998,110.20508 212.9998,110.20508 Z"></path><path fill="#272727" d="M154.9998,5.20485993 C259.9998,-13.7946201 292.4998,24.1834799 298.4998,39.6831799 C304.4998,55.1827799 303.7498,58.1834799 295.4998,69.1835799 C283.4998,85.1834799 226.9998,63.6831799 180.9998,71.6831799 C134.9998,79.6831799 128.9998,130.18308 96.4998,153.18308 C70.4998,171.58308 44.6668,175.85008 34.9998,175.68308 C41.4998,155.68308 56.0998,110.78308 62.4998,91.1831799 C70.4998,66.6831799 99.0358,15.3313799 154.9998,5.20485993 Z"></path><polygon fill="#272727" points="119.655 148.011 117.371 117.559 114.277 79.055 293.147 61.998 220.887 140.957 216.961 123.938 202.223 135.98 194.611 118.399 178.778 139.396 167.012 131.216 144.119 144.446 141.529 134.928"></polygon></g></g></g></svg>